<svg width="31" height="24" viewBox="0 0 31 24" fill="none" xmlns="http://www.w3.org/2000/svg">
<path d="M9.64359 16.5288C12.0227 16.5288 13.9514 15.1265 13.9514 13.3966C13.9514 11.6667 12.0227 10.2643 9.64359 10.2643C7.26446 10.2643 5.33578 11.6667 5.33578 13.3966C5.33578 15.1265 7.26446 16.5288 9.64359 16.5288Z" stroke="black" stroke-width="1.5" stroke-linecap="round" stroke-linejoin="round"/>
<path d="M21.1311 9.56827C23.5102 9.56827 25.4389 8.16592 25.4389 6.43602C25.4389 4.70613 23.5102 3.30377 21.1311 3.30377C18.7519 3.30377 16.8233 4.70613 16.8233 6.43602C16.8233 8.16592 18.7519 9.56827 21.1311 9.56827Z" stroke="black" stroke-width="1.5" stroke-linecap="round" stroke-linejoin="round"/>
<path d="M14.9087 13.7446C14.9087 12.3525 16.3446 9.56827 21.1311 9.56827C25.9175 9.56827 27.3535 12.3525 27.3535 13.7446M3.4212 20.7052C3.4212 19.313 4.85714 16.5288 9.64359 16.5288C14.43 16.5288 15.866 19.313 15.866 20.7052" stroke="black" stroke-width="1.5" stroke-linecap="round" stroke-linejoin="round"/>
</svg>
