<svg width="40" height="45" viewBox="0 0 40 45" fill="none" xmlns="http://www.w3.org/2000/svg">
<path d="M33.125 19.6875C33.125 30.2344 20 40.0781 20 40.0781C20 40.0781 6.875 30.2344 6.875 19.6875C6.875 15.7714 8.25781 12.0157 10.7192 9.24663C13.1806 6.47753 16.519 4.92188 20 4.92188C23.481 4.92188 26.8194 6.47753 29.2808 9.24663C31.7422 12.0157 33.125 15.7714 33.125 19.6875Z" stroke="black" stroke-width="1.5" stroke-linecap="round" stroke-linejoin="round"/>
<path d="M20 23.2031C21.7259 23.2031 23.125 21.6291 23.125 19.6875C23.125 17.7459 21.7259 16.1719 20 16.1719C18.2741 16.1719 16.875 17.7459 16.875 19.6875C16.875 21.6291 18.2741 23.2031 20 23.2031Z" fill="black" stroke="black" stroke-width="1.5" stroke-linecap="round" stroke-linejoin="round"/>
</svg>
