<svg width="31" height="24" viewBox="0 0 31 24" fill="none" xmlns="http://www.w3.org/2000/svg">
<path d="M9.64356 16.5289C12.0227 16.5289 13.9514 15.1265 13.9514 13.3967C13.9514 11.6668 12.0227 10.2644 9.64356 10.2644C7.26442 10.2644 5.33575 11.6668 5.33575 13.3967C5.33575 15.1265 7.26442 16.5289 9.64356 16.5289Z" stroke="black" stroke-width="1.5" stroke-linecap="round" stroke-linejoin="round"/>
<path d="M21.131 9.56845C23.5102 9.56845 25.4389 8.1661 25.4389 6.4362C25.4389 4.70631 23.5102 3.30396 21.131 3.30396C18.7519 3.30396 16.8232 4.70631 16.8232 6.4362C16.8232 8.1661 18.7519 9.56845 21.131 9.56845Z" stroke="black" stroke-width="1.5" stroke-linecap="round" stroke-linejoin="round"/>
<path d="M14.9087 13.7447C14.9087 12.3526 16.3446 9.56836 21.1311 9.56836C25.9175 9.56836 27.3535 12.3526 27.3535 13.7447M3.4212 20.7052C3.4212 19.3131 4.85714 16.5289 9.64359 16.5289C14.43 16.5289 15.866 19.3131 15.866 20.7052" stroke="black" stroke-width="1.5" stroke-linecap="round" stroke-linejoin="round"/>
</svg>
