<svg width="32" height="23" viewBox="0 0 32 23" fill="none" xmlns="http://www.w3.org/2000/svg">
<path d="M9.93204 16.0695C12.3182 16.0695 14.2526 14.6703 14.2526 12.9445C14.2526 11.2186 12.3182 9.81946 9.93204 9.81946C7.54588 9.81946 5.61151 11.2186 5.61151 12.9445C5.61151 14.6703 7.54588 16.0695 9.93204 16.0695Z" stroke="black" stroke-width="1.5" stroke-linecap="round" stroke-linejoin="round"/>
<path d="M21.4535 9.125C23.8396 9.125 25.774 7.72589 25.774 6C25.774 4.27411 23.8396 2.875 21.4535 2.875C19.0673 2.875 17.1329 4.27411 17.1329 6C17.1329 7.72589 19.0673 9.125 21.4535 9.125Z" stroke="black" stroke-width="1.5" stroke-linecap="round" stroke-linejoin="round"/>
<path d="M15.2127 13.2917C15.2127 11.9028 16.6529 9.125 21.4535 9.125C26.2541 9.125 27.6942 11.9028 27.6942 13.2917M3.69128 20.2361C3.69128 18.8472 5.13146 16.0694 9.93205 16.0694C14.7326 16.0694 16.1728 18.8472 16.1728 20.2361" stroke="black" stroke-width="1.5" stroke-linecap="round" stroke-linejoin="round"/>
</svg>
