<svg width="32" height="23" viewBox="0 0 32 23" fill="none" xmlns="http://www.w3.org/2000/svg">
<path d="M9.93212 16.0693C12.3183 16.0693 14.2527 14.6702 14.2527 12.9443C14.2527 11.2184 12.3183 9.81934 9.93212 9.81934C7.54596 9.81934 5.61159 11.2184 5.61159 12.9443C5.61159 14.6702 7.54596 16.0693 9.93212 16.0693Z" stroke="black" stroke-width="1.5" stroke-linecap="round" stroke-linejoin="round"/>
<path d="M21.4535 9.12488C23.8397 9.12488 25.7741 7.72577 25.7741 5.99988C25.7741 4.27399 23.8397 2.87488 21.4535 2.87488C19.0674 2.87488 17.133 4.27399 17.133 5.99988C17.133 7.72577 19.0674 9.12488 21.4535 9.12488Z" stroke="black" stroke-width="1.5" stroke-linecap="round" stroke-linejoin="round"/>
<path d="M15.2128 13.2915C15.2128 11.9027 16.6529 9.12488 21.4535 9.12488C26.2541 9.12488 27.6943 11.9027 27.6943 13.2915M3.69135 20.236C3.69135 18.8471 5.13152 16.0693 9.93211 16.0693C14.7327 16.0693 16.1729 18.8471 16.1729 20.236" stroke="black" stroke-width="1.5" stroke-linecap="round" stroke-linejoin="round"/>
</svg>
