<svg width="34" height="28" viewBox="0 0 34 28" fill="none" xmlns="http://www.w3.org/2000/svg">
<path d="M10.625 19.6875C13.2656 19.6875 15.4062 17.9246 15.4062 15.75C15.4062 13.5754 13.2656 11.8125 10.625 11.8125C7.98439 11.8125 5.84375 13.5754 5.84375 15.75C5.84375 17.9246 7.98439 19.6875 10.625 19.6875Z" stroke="black" stroke-width="1.5" stroke-linecap="round" stroke-linejoin="round"/>
<path d="M23.375 10.9375C26.0156 10.9375 28.1562 9.17462 28.1562 7C28.1562 4.82538 26.0156 3.0625 23.375 3.0625C20.7344 3.0625 18.5938 4.82538 18.5938 7C18.5938 9.17462 20.7344 10.9375 23.375 10.9375Z" stroke="black" stroke-width="1.5" stroke-linecap="round" stroke-linejoin="round"/>
<path d="M16.4688 16.1875C16.4688 14.4375 18.0625 10.9375 23.375 10.9375C28.6875 10.9375 30.2812 14.4375 30.2812 16.1875M3.71875 24.9375C3.71875 23.1875 5.3125 19.6875 10.625 19.6875C15.9375 19.6875 17.5312 23.1875 17.5312 24.9375" stroke="black" stroke-width="1.5" stroke-linecap="round" stroke-linejoin="round"/>
</svg>
