<svg width="32" height="23" viewBox="0 0 32 23" fill="none" xmlns="http://www.w3.org/2000/svg">
<path d="M9.93212 16.0693C12.3183 16.0693 14.2527 14.6702 14.2527 12.9443C14.2527 11.2184 12.3183 9.81934 9.93212 9.81934C7.54596 9.81934 5.61159 11.2184 5.61159 12.9443C5.61159 14.6702 7.54596 16.0693 9.93212 16.0693Z" stroke="black" stroke-width="1.5" stroke-linecap="round" stroke-linejoin="round"/>
<path d="M21.4535 9.125C23.8397 9.125 25.7741 7.72589 25.7741 6C25.7741 4.27411 23.8397 2.875 21.4535 2.875C19.0674 2.875 17.133 4.27411 17.133 6C17.133 7.72589 19.0674 9.125 21.4535 9.125Z" stroke="black" stroke-width="1.5" stroke-linecap="round" stroke-linejoin="round"/>
<path d="M15.2128 13.2917C15.2128 11.9028 16.6529 9.125 21.4535 9.125C26.2541 9.125 27.6943 11.9028 27.6943 13.2917M3.69135 20.2361C3.69135 18.8472 5.13152 16.0694 9.93211 16.0694C14.7327 16.0694 16.1729 18.8472 16.1729 20.2361" stroke="black" stroke-width="1.5" stroke-linecap="round" stroke-linejoin="round"/>
</svg>
