<svg width="33" height="19" viewBox="0 0 33 19" fill="none" xmlns="http://www.w3.org/2000/svg">
<path d="M10.3125 13.3594C12.8754 13.3594 14.9531 12.1631 14.9531 10.6875C14.9531 9.21186 12.8754 8.01562 10.3125 8.01562C7.74955 8.01562 5.67188 9.21186 5.67188 10.6875C5.67188 12.1631 7.74955 13.3594 10.3125 13.3594Z" stroke="black" stroke-width="1.5" stroke-linecap="round" stroke-linejoin="round"/>
<path d="M22.6875 7.42188C25.2504 7.42188 27.3281 6.22564 27.3281 4.75C27.3281 3.27436 25.2504 2.07812 22.6875 2.07812C20.1246 2.07812 18.0469 3.27436 18.0469 4.75C18.0469 6.22564 20.1246 7.42188 22.6875 7.42188Z" stroke="black" stroke-width="1.5" stroke-linecap="round" stroke-linejoin="round"/>
<path d="M15.9844 10.9844C15.9844 9.79688 17.5312 7.42188 22.6875 7.42188C27.8438 7.42188 29.3906 9.79688 29.3906 10.9844M3.60938 16.9219C3.60938 15.7344 5.15625 13.3594 10.3125 13.3594C15.4688 13.3594 17.0156 15.7344 17.0156 16.9219" stroke="black" stroke-width="1.5" stroke-linecap="round" stroke-linejoin="round"/>
</svg>
