<svg width="32" height="23" viewBox="0 0 32 23" fill="none" xmlns="http://www.w3.org/2000/svg">
<path d="M9.93223 16.0693C12.3184 16.0693 14.2528 14.6702 14.2528 12.9443C14.2528 11.2184 12.3184 9.81934 9.93223 9.81934C7.54606 9.81934 5.61169 11.2184 5.61169 12.9443C5.61169 14.6702 7.54606 16.0693 9.93223 16.0693Z" stroke="black" stroke-width="1.5" stroke-linecap="round" stroke-linejoin="round"/>
<path d="M21.4536 9.12488C23.8398 9.12488 25.7741 7.72577 25.7741 5.99988C25.7741 4.27399 23.8398 2.87488 21.4536 2.87488C19.0674 2.87488 17.1331 4.27399 17.1331 5.99988C17.1331 7.72577 19.0674 9.12488 21.4536 9.12488Z" stroke="black" stroke-width="1.5" stroke-linecap="round" stroke-linejoin="round"/>
<path d="M15.2128 13.2915C15.2128 11.9027 16.653 9.12488 21.4536 9.12488C26.2542 9.12488 27.6944 11.9027 27.6944 13.2915M3.69141 20.236C3.69141 18.8471 5.13158 16.0693 9.93217 16.0693C14.7328 16.0693 16.1729 18.8471 16.1729 20.236" stroke="black" stroke-width="1.5" stroke-linecap="round" stroke-linejoin="round"/>
</svg>
