<svg width="31" height="23" viewBox="0 0 31 23" fill="none" xmlns="http://www.w3.org/2000/svg">
<path d="M9.8144 15.7446C12.1935 15.7446 14.1222 14.3422 14.1222 12.6124C14.1222 10.8825 12.1935 9.4801 9.8144 9.4801C7.43526 9.4801 5.50659 10.8825 5.50659 12.6124C5.50659 14.3422 7.43526 15.7446 9.8144 15.7446Z" stroke="black" stroke-width="1.5" stroke-linecap="round" stroke-linejoin="round"/>
<path d="M21.3019 8.78403C23.681 8.78403 25.6097 7.38167 25.6097 5.65178C25.6097 3.92189 23.681 2.51953 21.3019 2.51953C18.9227 2.51953 16.9941 3.92189 16.9941 5.65178C16.9941 7.38167 18.9227 8.78403 21.3019 8.78403Z" stroke="black" stroke-width="1.5" stroke-linecap="round" stroke-linejoin="round"/>
<path d="M15.0795 12.9604C15.0795 11.5683 16.5155 8.78406 21.3019 8.78406C26.0884 8.78406 27.5243 11.5683 27.5243 12.9604M3.59204 19.9209C3.59204 18.5288 5.02798 15.7446 9.81443 15.7446C14.6009 15.7446 16.0368 18.5288 16.0368 19.9209" stroke="black" stroke-width="1.5" stroke-linecap="round" stroke-linejoin="round"/>
</svg>
