<svg width="47" height="34" viewBox="0 0 47 34" fill="none" xmlns="http://www.w3.org/2000/svg">
<path d="M39.1344 16.9865C38.8226 16.9875 38.5189 16.9143 38.2703 16.7782L23.7725 8.91705L9.27473 16.7782C8.96917 16.9439 8.58508 17.0151 8.20696 16.976C7.82884 16.937 7.48766 16.7908 7.25849 16.5698C7.02931 16.3488 6.93091 16.071 6.98492 15.7975C7.03894 15.524 7.24095 15.2773 7.54652 15.1115L22.9084 6.77816C23.1577 6.64293 23.4609 6.56982 23.7725 6.56982C24.0841 6.56982 24.3873 6.64293 24.6366 6.77816L39.9985 15.1115C40.2774 15.2753 40.4615 15.5086 40.5148 15.7655C40.5681 16.0225 40.4867 16.2846 40.2866 16.5004C40.1642 16.6434 39.9951 16.7625 39.7942 16.8473C39.5934 16.932 39.3668 16.9798 39.1344 16.9865Z" fill="black"/>
<path d="M35.2939 28.0976H12.2511C11.8707 28.094 11.5072 27.9831 11.2382 27.7885C10.9692 27.594 10.8159 27.3311 10.8109 27.0559V13.8615C10.8109 13.5852 10.9626 13.3203 11.2327 13.1249C11.5028 12.9296 11.8691 12.8198 12.2511 12.8198C12.633 12.8198 12.9994 12.9296 13.2694 13.1249C13.5395 13.3203 13.6913 13.5852 13.6913 13.8615V26.0143H33.8537V13.8615C33.8537 13.5852 34.0055 13.3203 34.2756 13.1249C34.5457 12.9296 34.912 12.8198 35.2939 12.8198C35.6759 12.8198 36.0422 12.9296 36.3123 13.1249C36.5824 13.3203 36.7341 13.5852 36.7341 13.8615V27.0559C36.7291 27.3311 36.5758 27.594 36.3068 27.7885C36.0378 27.9831 35.6743 28.094 35.2939 28.0976Z" fill="black"/>
<path d="M27.613 28.0975C27.2326 28.094 26.8691 27.983 26.6001 27.7885C26.3311 27.5939 26.1778 27.331 26.1728 27.0559V18.3753H21.3722V27.0559C21.3722 27.3321 21.2205 27.5971 20.9504 27.7925C20.6803 27.9878 20.314 28.0975 19.932 28.0975C19.5501 28.0975 19.1838 27.9878 18.9137 27.7925C18.6436 27.5971 18.4919 27.3321 18.4919 27.0559V17.3337C18.4968 17.0585 18.6502 16.7956 18.9192 16.6011C19.1882 16.4065 19.5516 16.2956 19.932 16.292H27.613C27.9934 16.2956 28.3568 16.4065 28.6258 16.6011C28.8949 16.7956 29.0482 17.0585 29.0532 17.3337V27.0559C29.0482 27.331 28.8949 27.5939 28.6258 27.7885C28.3568 27.983 27.9934 28.094 27.613 28.0975Z" fill="black"/>
</svg>
