<svg width="43" height="31" viewBox="0 0 43 31" fill="none" xmlns="http://www.w3.org/2000/svg">
<path d="M16.2076 14.6362H10.9425C9.89524 14.6362 8.89084 14.3475 8.1503 13.8335C7.40975 13.3195 6.99371 12.6224 6.99371 11.8955V8.24121C6.99371 7.51432 7.40975 6.81721 8.1503 6.30323C8.89084 5.78924 9.89524 5.50049 10.9425 5.50049H16.2076C17.2549 5.50049 18.2593 5.78924 18.9999 6.30323C19.7404 6.81721 20.1565 7.51432 20.1565 8.24121V11.8955C20.1565 12.6224 19.7404 13.3195 18.9999 13.8335C18.2593 14.3475 17.2549 14.6362 16.2076 14.6362ZM10.9425 7.32763C10.5949 7.33079 10.2627 7.42805 10.0168 7.5987C9.77094 7.76935 9.63081 7.99989 9.62626 8.24121V11.8955C9.63081 12.1368 9.77094 12.3674 10.0168 12.538C10.2627 12.7087 10.5949 12.8059 10.9425 12.8091H16.2076C16.5553 12.8059 16.8875 12.7087 17.1334 12.538C17.3792 12.3674 17.5194 12.1368 17.5239 11.8955V8.24121C17.5194 7.99989 17.3792 7.76935 17.1334 7.5987C16.8875 7.42805 16.5553 7.33079 16.2076 7.32763H10.9425ZM16.2076 25.5991H10.9425C9.89524 25.5991 8.89084 25.3103 8.1503 24.7964C7.40975 24.2824 6.99371 23.5853 6.99371 22.8584V19.2041C6.99371 18.4772 7.40975 17.7801 8.1503 17.2661C8.89084 16.7521 9.89524 16.4634 10.9425 16.4634H16.2076C17.2549 16.4634 18.2593 16.7521 18.9999 17.2661C19.7404 17.7801 20.1565 18.4772 20.1565 19.2041V22.8584C20.1565 23.5853 19.7404 24.2824 18.9999 24.7964C18.2593 25.3103 17.2549 25.5991 16.2076 25.5991ZM10.9425 18.2905C10.5949 18.2937 10.2627 18.3909 10.0168 18.5616C9.77094 18.7322 9.63081 18.9628 9.62626 19.2041V22.8584C9.63081 23.0997 9.77094 23.3302 10.0168 23.5009C10.2627 23.6715 10.5949 23.7688 10.9425 23.7719H16.2076C16.5553 23.7688 16.8875 23.6715 17.1334 23.5009C17.3792 23.3302 17.5194 23.0997 17.5239 22.8584V19.2041C17.5194 18.9628 17.3792 18.7322 17.1334 18.5616C16.8875 18.3909 16.5553 18.2937 16.2076 18.2905H10.9425ZM32.0029 14.6362H26.7378C25.6905 14.6362 24.6861 14.3475 23.9456 13.8335C23.205 13.3195 22.789 12.6224 22.789 11.8955V8.24121C22.789 7.51432 23.205 6.81721 23.9456 6.30323C24.6861 5.78924 25.6905 5.50049 26.7378 5.50049H32.0029C33.0502 5.50049 34.0546 5.78924 34.7952 6.30323C35.5357 6.81721 35.9517 7.51432 35.9517 8.24121V11.8955C35.9517 12.6224 35.5357 13.3195 34.7952 13.8335C34.0546 14.3475 33.0502 14.6362 32.0029 14.6362ZM26.7378 7.32763C26.3901 7.33079 26.058 7.42805 25.8121 7.5987C25.5662 7.76935 25.4261 7.99989 25.4215 8.24121V11.8955C25.4261 12.1368 25.5662 12.3674 25.8121 12.538C26.058 12.7087 26.3901 12.8059 26.7378 12.8091H32.0029C32.3506 12.8059 32.6828 12.7087 32.9286 12.538C33.1745 12.3674 33.3146 12.1368 33.3192 11.8955V8.24121C33.3146 7.99989 33.1745 7.76935 32.9286 7.5987C32.6828 7.42805 32.3506 7.33079 32.0029 7.32763H26.7378ZM32.0029 25.5991H26.7378C25.6905 25.5991 24.6861 25.3103 23.9456 24.7964C23.205 24.2824 22.789 23.5853 22.789 22.8584V19.2041C22.789 18.4772 23.205 17.7801 23.9456 17.2661C24.6861 16.7521 25.6905 16.4634 26.7378 16.4634H32.0029C33.0502 16.4634 34.0546 16.7521 34.7952 17.2661C35.5357 17.7801 35.9517 18.4772 35.9517 19.2041V22.8584C35.9517 23.5853 35.5357 24.2824 34.7952 24.7964C34.0546 25.3103 33.0502 25.5991 32.0029 25.5991ZM26.7378 18.2905C26.3901 18.2937 26.058 18.3909 25.8121 18.5616C25.5662 18.7322 25.4261 18.9628 25.4215 19.2041V22.8584C25.4261 23.0997 25.5662 23.3302 25.8121 23.5009C26.058 23.6715 26.3901 23.7688 26.7378 23.7719H32.0029C32.3506 23.7688 32.6828 23.6715 32.9286 23.5009C33.1745 23.3302 33.3146 23.0997 33.3192 22.8584V19.2041C33.3146 18.9628 33.1745 18.7322 32.9286 18.5616C32.6828 18.3909 32.3506 18.2937 32.0029 18.2905H26.7378Z" fill="black"/>
</svg>
