<svg width="48" height="28" viewBox="0 0 48 28" fill="none" xmlns="http://www.w3.org/2000/svg">
<path d="M40 13.7083C39.6752 13.7091 39.359 13.6476 39.1 13.5333L24 6.92992L8.90001 13.5333C8.58175 13.6725 8.1817 13.7323 7.78787 13.6995C7.39405 13.6666 7.0387 13.5439 6.80001 13.3583C6.56131 13.1726 6.45882 12.9392 6.51508 12.7095C6.57134 12.4798 6.78175 12.2725 7.10001 12.1333L23.1 5.13325C23.3597 5.01966 23.6755 4.95825 24 4.95825C24.3246 4.95825 24.6404 5.01966 24.9 5.13325L40.9 12.1333C41.1904 12.2709 41.3822 12.4668 41.4377 12.6827C41.4932 12.8985 41.4085 13.1187 41.2 13.2999C41.0725 13.4201 40.8965 13.5201 40.6872 13.5913C40.478 13.6625 40.242 13.7027 40 13.7083Z" fill="black"/>
<path d="M36 23.0416H12C11.6038 23.0386 11.2253 22.9454 10.9451 22.782C10.6649 22.6185 10.5052 22.3977 10.5 22.1666V11.0833C10.5 10.8512 10.658 10.6286 10.9393 10.4645C11.2206 10.3004 11.6022 10.2083 12 10.2083C12.3978 10.2083 12.7794 10.3004 13.0607 10.4645C13.342 10.6286 13.5 10.8512 13.5 11.0833V21.2916H34.5V11.0833C34.5 10.8512 34.658 10.6286 34.9393 10.4645C35.2206 10.3004 35.6022 10.2083 36 10.2083C36.3978 10.2083 36.7794 10.3004 37.0607 10.4645C37.342 10.6286 37.5 10.8512 37.5 11.0833V22.1666C37.4948 22.3977 37.3351 22.6185 37.0549 22.782C36.7747 22.9454 36.3962 23.0386 36 23.0416Z" fill="black"/>
<path d="M28 23.0417C27.6038 23.0386 27.2253 22.9455 26.9451 22.782C26.6649 22.6186 26.5052 22.3978 26.5 22.1667V14.875H21.5V22.1667C21.5 22.3987 21.342 22.6213 21.0607 22.7854C20.7794 22.9495 20.3978 23.0417 20 23.0417C19.6022 23.0417 19.2206 22.9495 18.9393 22.7854C18.658 22.6213 18.5 22.3987 18.5 22.1667V14C18.5052 13.7689 18.6649 13.5481 18.9451 13.3846C19.2253 13.2212 19.6038 13.128 20 13.125H28C28.3962 13.128 28.7747 13.2212 29.0549 13.3846C29.3351 13.5481 29.4948 13.7689 29.5 14V22.1667C29.4948 22.3978 29.3351 22.6186 29.0549 22.782C28.7747 22.9455 28.3962 23.0386 28 23.0417Z" fill="black"/>
</svg>
