<svg width="50" height="30" viewBox="0 0 50 30" fill="none" xmlns="http://www.w3.org/2000/svg">
<path d="M41.6667 14.6875C41.3283 14.6884 40.9989 14.6225 40.7292 14.5L25 7.425L9.27082 14.5C8.9393 14.6492 8.52258 14.7132 8.11235 14.6781C7.70211 14.6429 7.33196 14.5114 7.08332 14.3125C6.83468 14.1136 6.72792 13.8636 6.78652 13.6174C6.84513 13.3713 7.0643 13.1492 7.39582 13L24.0625 5.5C24.3329 5.37829 24.6619 5.3125 25 5.3125C25.3381 5.3125 25.667 5.37829 25.9375 5.5L42.6042 13C42.9067 13.1474 43.1065 13.3574 43.1643 13.5887C43.2221 13.8199 43.1338 14.0558 42.9167 14.25C42.7839 14.3787 42.6005 14.4859 42.3825 14.5622C42.1646 14.6385 41.9188 14.6815 41.6667 14.6875Z" fill="black"/>
<path d="M37.5 24.6875H12.5C12.0873 24.6843 11.693 24.5845 11.4011 24.4093C11.1092 24.2342 10.9429 23.9976 10.9375 23.75V11.875C10.9375 11.6264 11.1021 11.3879 11.3951 11.2121C11.6882 11.0363 12.0856 10.9375 12.5 10.9375C12.9144 10.9375 13.3118 11.0363 13.6049 11.2121C13.8979 11.3879 14.0625 11.6264 14.0625 11.875V22.8125H35.9375V11.875C35.9375 11.6264 36.1021 11.3879 36.3951 11.2121C36.6882 11.0363 37.0856 10.9375 37.5 10.9375C37.9144 10.9375 38.3118 11.0363 38.6049 11.2121C38.8979 11.3879 39.0625 11.6264 39.0625 11.875V23.75C39.0571 23.9976 38.8908 24.2342 38.5989 24.4093C38.307 24.5845 37.9127 24.6843 37.5 24.6875Z" fill="black"/>
<path d="M29.1667 24.6875C28.754 24.6843 28.3597 24.5845 28.0678 24.4093C27.7759 24.2342 27.6096 23.9976 27.6042 23.75V15.9375H22.3958V23.75C22.3958 23.9986 22.2312 24.2371 21.9382 24.4129C21.6452 24.5887 21.2477 24.6875 20.8333 24.6875C20.4189 24.6875 20.0215 24.5887 19.7285 24.4129C19.4355 24.2371 19.2708 23.9986 19.2708 23.75V15C19.2762 14.7524 19.4426 14.5158 19.7345 14.3407C20.0263 14.1655 20.4206 14.0657 20.8333 14.0625H29.1667C29.5794 14.0657 29.9737 14.1655 30.2656 14.3407C30.5574 14.5158 30.7238 14.7524 30.7292 15V23.75C30.7238 23.9976 30.5574 24.2342 30.2656 24.4093C29.9737 24.5845 29.5794 24.6843 29.1667 24.6875Z" fill="black"/>
</svg>
