<svg width="47" height="34" viewBox="0 0 47 34" fill="none" xmlns="http://www.w3.org/2000/svg">
<path d="M39.1344 16.9862C38.8226 16.9873 38.5189 16.9141 38.2703 16.7779L23.7725 8.9168L9.27475 16.7779C8.96918 16.9437 8.58509 17.0148 8.20697 16.9758C7.82885 16.9367 7.48768 16.7906 7.2585 16.5696C7.02933 16.3486 6.93092 16.0708 6.98494 15.7973C7.03896 15.5238 7.24097 15.277 7.54654 15.1112L22.9084 6.77791C23.1577 6.64268 23.4609 6.56958 23.7725 6.56958C24.0841 6.56958 24.3874 6.64268 24.6366 6.77791L39.9985 15.1112C40.2774 15.2751 40.4615 15.5083 40.5148 15.7653C40.5681 16.0223 40.4867 16.2844 40.2866 16.5001C40.1642 16.6432 39.9951 16.7623 39.7943 16.847C39.5934 16.9318 39.3668 16.9796 39.1344 16.9862Z" fill="black"/>
<path d="M35.294 28.0974H12.2512C11.8708 28.0938 11.5074 27.9829 11.2384 27.7883C10.9693 27.5937 10.816 27.3308 10.811 27.0557V13.8612C10.811 13.585 10.9628 13.32 11.2329 13.1247C11.5029 12.9293 11.8693 12.8196 12.2512 12.8196C12.6332 12.8196 12.9995 12.9293 13.2696 13.1247C13.5397 13.32 13.6914 13.585 13.6914 13.8612V26.014H33.8539V13.8612C33.8539 13.585 34.0056 13.32 34.2757 13.1247C34.5458 12.9293 34.9121 12.8196 35.294 12.8196C35.676 12.8196 36.0423 12.9293 36.3124 13.1247C36.5825 13.32 36.7342 13.585 36.7342 13.8612V27.0557C36.7293 27.3308 36.5759 27.5937 36.3069 27.7883C36.0379 27.9829 35.6745 28.0938 35.294 28.0974Z" fill="black"/>
<path d="M27.6131 28.0973C27.2327 28.0937 26.8692 27.9828 26.6002 27.7882C26.3312 27.5937 26.1779 27.3308 26.1729 27.0556V18.3751H21.3723V27.0556C21.3723 27.3319 21.2206 27.5969 20.9505 27.7922C20.6804 27.9876 20.3141 28.0973 19.9321 28.0973C19.5502 28.0973 19.1838 27.9876 18.9138 27.7922C18.6437 27.5969 18.4919 27.3319 18.4919 27.0556V17.3334C18.4969 17.0583 18.6502 16.7954 18.9193 16.6008C19.1883 16.4062 19.5517 16.2953 19.9321 16.2917H27.6131C27.9935 16.2953 28.3569 16.4062 28.6259 16.6008C28.8949 16.7954 29.0483 17.0583 29.0532 17.3334V27.0556C29.0483 27.3308 28.8949 27.5937 28.6259 27.7882C28.3569 27.9828 27.9935 28.0937 27.6131 28.0973Z" fill="black"/>
</svg>
