<svg width="43" height="30" viewBox="0 0 43 30" fill="none" xmlns="http://www.w3.org/2000/svg">
<path d="M16.4919 13.8389H11.2113C10.1609 13.8389 9.15351 13.5509 8.41078 13.0381C7.66804 12.5253 7.25078 11.8298 7.25078 11.1046V7.45874C7.25078 6.73354 7.66804 6.03804 8.41078 5.52525C9.15351 5.01245 10.1609 4.72437 11.2113 4.72437H16.4919C17.5423 4.72437 18.5497 5.01245 19.2924 5.52525C20.0351 6.03804 20.4524 6.73354 20.4524 7.45874V11.1046C20.4524 11.8298 20.0351 12.5253 19.2924 13.0381C18.5497 13.5509 17.5423 13.8389 16.4919 13.8389ZM11.2113 6.54728C10.8626 6.55043 10.5294 6.64747 10.2828 6.81772C10.0362 6.98798 9.89566 7.21799 9.8911 7.45874V11.1046C9.89566 11.3453 10.0362 11.5753 10.2828 11.7456C10.5294 11.9158 10.8626 12.0129 11.2113 12.016H16.4919C16.8406 12.0129 17.1738 11.9158 17.4204 11.7456C17.667 11.5753 17.8075 11.3453 17.8121 11.1046V7.45874C17.8075 7.21799 17.667 6.98798 17.4204 6.81772C17.1738 6.64747 16.8406 6.55043 16.4919 6.54728H11.2113ZM16.4919 24.7765H11.2113C10.1609 24.7765 9.15351 24.4884 8.41078 23.9756C7.66804 23.4628 7.25078 22.7673 7.25078 22.0421V18.3962C7.25078 17.671 7.66804 16.9755 8.41078 16.4627C9.15351 15.95 10.1609 15.6619 11.2113 15.6619H16.4919C17.5423 15.6619 18.5497 15.95 19.2924 16.4627C20.0351 16.9755 20.4524 17.671 20.4524 18.3962V22.0421C20.4524 22.7673 20.0351 23.4628 19.2924 23.9756C18.5497 24.4884 17.5423 24.7765 16.4919 24.7765ZM11.2113 17.4848C10.8626 17.4879 10.5294 17.585 10.2828 17.7552C10.0362 17.9255 9.89566 18.1555 9.8911 18.3962V22.0421C9.89566 22.2828 10.0362 22.5128 10.2828 22.6831C10.5294 22.8533 10.8626 22.9504 11.2113 22.9535H16.4919C16.8406 22.9504 17.1738 22.8533 17.4204 22.6831C17.667 22.5128 17.8075 22.2828 17.8121 22.0421V18.3962C17.8075 18.1555 17.667 17.9255 17.4204 17.7552C17.1738 17.585 16.8406 17.4879 16.4919 17.4848H11.2113ZM32.3339 13.8389H27.0532C26.0028 13.8389 24.9955 13.5509 24.2527 13.0381C23.51 12.5253 23.0927 11.8298 23.0927 11.1046V7.45874C23.0927 6.73354 23.51 6.03804 24.2527 5.52525C24.9955 5.01245 26.0028 4.72437 27.0532 4.72437H32.3339C33.3843 4.72437 34.3916 5.01245 35.1344 5.52525C35.8771 6.03804 36.2944 6.73354 36.2944 7.45874V11.1046C36.2944 11.8298 35.8771 12.5253 35.1344 13.0381C34.3916 13.5509 33.3843 13.8389 32.3339 13.8389ZM27.0532 6.54728C26.7045 6.55043 26.3714 6.64747 26.1248 6.81772C25.8782 6.98798 25.7376 7.21799 25.7331 7.45874V11.1046C25.7376 11.3453 25.8782 11.5753 26.1248 11.7456C26.3714 11.9158 26.7045 12.0129 27.0532 12.016H32.3339C32.6826 12.0129 33.0157 11.9158 33.2623 11.7456C33.5089 11.5753 33.6495 11.3453 33.654 11.1046V7.45874C33.6495 7.21799 33.5089 6.98798 33.2623 6.81772C33.0157 6.64747 32.6826 6.55043 32.3339 6.54728H27.0532ZM32.3339 24.7765H27.0532C26.0028 24.7765 24.9955 24.4884 24.2527 23.9756C23.51 23.4628 23.0927 22.7673 23.0927 22.0421V18.3962C23.0927 17.671 23.51 16.9755 24.2527 16.4627C24.9955 15.95 26.0028 15.6619 27.0532 15.6619H32.3339C33.3843 15.6619 34.3916 15.95 35.1344 16.4627C35.8771 16.9755 36.2944 17.671 36.2944 18.3962V22.0421C36.2944 22.7673 35.8771 23.4628 35.1344 23.9756C34.3916 24.4884 33.3843 24.7765 32.3339 24.7765ZM27.0532 17.4848C26.7045 17.4879 26.3714 17.585 26.1248 17.7552C25.8782 17.9255 25.7376 18.1555 25.7331 18.3962V22.0421C25.7376 22.2828 25.8782 22.5128 26.1248 22.6831C26.3714 22.8533 26.7045 22.9504 27.0532 22.9535H32.3339C32.6826 22.9504 33.0157 22.8533 33.2623 22.6831C33.5089 22.5128 33.6495 22.2828 33.654 22.0421V18.3962C33.6495 18.1555 33.5089 17.9255 33.2623 17.7552C33.0157 17.585 32.6826 17.4879 32.3339 17.4848H27.0532Z" fill="black"/>
</svg>
