<svg width="43" height="30" viewBox="0 0 43 30" fill="none" xmlns="http://www.w3.org/2000/svg">
<path d="M16.2076 14.0677H10.9425C9.89524 14.0677 8.89084 13.779 8.1503 13.265C7.40975 12.751 6.99371 12.0539 6.99371 11.327V7.67273C6.99371 6.94584 7.40975 6.24873 8.1503 5.73474C8.89084 5.22076 9.89524 4.93201 10.9425 4.93201H16.2076C17.2549 4.93201 18.2593 5.22076 18.9999 5.73474C19.7404 6.24873 20.1565 6.94584 20.1565 7.67273V11.327C20.1565 12.0539 19.7404 12.751 18.9999 13.265C18.2593 13.779 17.2549 14.0677 16.2076 14.0677ZM10.9425 6.75915C10.5949 6.76231 10.2627 6.85957 10.0168 7.03022C9.77094 7.20087 9.63081 7.43141 9.62626 7.67273V11.327C9.63081 11.5683 9.77094 11.7989 10.0168 11.9695C10.2627 12.1402 10.5949 12.2374 10.9425 12.2406H16.2076C16.5553 12.2374 16.8875 12.1402 17.1334 11.9695C17.3792 11.7989 17.5194 11.5683 17.5239 11.327V7.67273C17.5194 7.43141 17.3792 7.20087 17.1334 7.03022C16.8875 6.85957 16.5553 6.76231 16.2076 6.75915H10.9425ZM16.2076 25.0306H10.9425C9.89524 25.0306 8.89084 24.7419 8.1503 24.2279C7.40975 23.7139 6.99371 23.0168 6.99371 22.2899V18.6356C6.99371 17.9087 7.40975 17.2116 8.1503 16.6976C8.89084 16.1836 9.89524 15.8949 10.9425 15.8949H16.2076C17.2549 15.8949 18.2593 16.1836 18.9999 16.6976C19.7404 17.2116 20.1565 17.9087 20.1565 18.6356V22.2899C20.1565 23.0168 19.7404 23.7139 18.9999 24.2279C18.2593 24.7419 17.2549 25.0306 16.2076 25.0306ZM10.9425 17.722C10.5949 17.7252 10.2627 17.8224 10.0168 17.9931C9.77094 18.1637 9.63081 18.3943 9.62626 18.6356V22.2899C9.63081 22.5312 9.77094 22.7617 10.0168 22.9324C10.2627 23.103 10.5949 23.2003 10.9425 23.2035H16.2076C16.5553 23.2003 16.8875 23.103 17.1334 22.9324C17.3792 22.7617 17.5194 22.5312 17.5239 22.2899V18.6356C17.5194 18.3943 17.3792 18.1637 17.1334 17.9931C16.8875 17.8224 16.5553 17.7252 16.2076 17.722H10.9425ZM32.0029 14.0677H26.7378C25.6905 14.0677 24.6861 13.779 23.9456 13.265C23.205 12.751 22.789 12.0539 22.789 11.327V7.67273C22.789 6.94584 23.205 6.24873 23.9456 5.73474C24.6861 5.22076 25.6905 4.93201 26.7378 4.93201H32.0029C33.0502 4.93201 34.0546 5.22076 34.7952 5.73474C35.5357 6.24873 35.9517 6.94584 35.9517 7.67273V11.327C35.9517 12.0539 35.5357 12.751 34.7952 13.265C34.0546 13.779 33.0502 14.0677 32.0029 14.0677ZM26.7378 6.75915C26.3901 6.76231 26.058 6.85957 25.8121 7.03022C25.5662 7.20087 25.4261 7.43141 25.4215 7.67273V11.327C25.4261 11.5683 25.5662 11.7989 25.8121 11.9695C26.058 12.1402 26.3901 12.2374 26.7378 12.2406H32.0029C32.3506 12.2374 32.6828 12.1402 32.9286 11.9695C33.1745 11.7989 33.3146 11.5683 33.3192 11.327V7.67273C33.3146 7.43141 33.1745 7.20087 32.9286 7.03022C32.6828 6.85957 32.3506 6.76231 32.0029 6.75915H26.7378ZM32.0029 25.0306H26.7378C25.6905 25.0306 24.6861 24.7419 23.9456 24.2279C23.205 23.7139 22.789 23.0168 22.789 22.2899V18.6356C22.789 17.9087 23.205 17.2116 23.9456 16.6976C24.6861 16.1836 25.6905 15.8949 26.7378 15.8949H32.0029C33.0502 15.8949 34.0546 16.1836 34.7952 16.6976C35.5357 17.2116 35.9517 17.9087 35.9517 18.6356V22.2899C35.9517 23.0168 35.5357 23.7139 34.7952 24.2279C34.0546 24.7419 33.0502 25.0306 32.0029 25.0306ZM26.7378 17.722C26.3901 17.7252 26.058 17.8224 25.8121 17.9931C25.5662 18.1637 25.4261 18.3943 25.4215 18.6356V22.2899C25.4261 22.5312 25.5662 22.7617 25.8121 22.9324C26.058 23.103 26.3901 23.2003 26.7378 23.2035H32.0029C32.3506 23.2003 32.6828 23.103 32.9286 22.9324C33.1745 22.7617 33.3146 22.5312 33.3192 22.2899V18.6356C33.3146 18.3943 33.1745 18.1637 32.9286 17.9931C32.6828 17.8224 32.3506 17.7252 32.0029 17.722H26.7378Z" fill="black"/>
</svg>
