<svg width="47" height="34" viewBox="0 0 47 34" fill="none" xmlns="http://www.w3.org/2000/svg">
<path d="M38.8748 16.7006C38.5638 16.7016 38.2611 16.6282 38.0132 16.4918L23.5581 8.61243L9.10304 16.4918C8.79838 16.6579 8.41542 16.7293 8.03841 16.6901C7.66141 16.6509 7.32124 16.5045 7.09274 16.283C6.86423 16.0614 6.76612 15.783 6.81998 15.5089C6.87384 15.2347 7.07525 14.9874 7.37992 14.8212L22.6966 6.46858C22.9451 6.33304 23.2474 6.25977 23.5581 6.25977C23.8688 6.25977 24.1711 6.33304 24.4197 6.46858L39.7363 14.8212C40.0144 14.9854 40.198 15.2193 40.2511 15.4768C40.3042 15.7344 40.2231 15.9971 40.0235 16.2134C39.9015 16.3567 39.7329 16.4761 39.5327 16.5611C39.3324 16.646 39.1065 16.6939 38.8748 16.7006Z" fill="black"/>
<path d="M35.0457 27.8374H12.0707C11.6914 27.8338 11.329 27.7226 11.0608 27.5276C10.7926 27.3326 10.6397 27.0691 10.6348 26.7933V13.5683C10.6348 13.2913 10.7861 13.0258 11.0553 12.83C11.3246 12.6342 11.6899 12.5242 12.0707 12.5242C12.4515 12.5242 12.8168 12.6342 13.0861 12.83C13.3554 13.0258 13.5066 13.2913 13.5066 13.5683V25.7492H33.6097V13.5683C33.6097 13.2913 33.761 13.0258 34.0303 12.83C34.2996 12.6342 34.6648 12.5242 35.0457 12.5242C35.4265 12.5242 35.7917 12.6342 36.061 12.83C36.3303 13.0258 36.4816 13.2913 36.4816 13.5683V26.7933C36.4766 27.0691 36.3238 27.3326 36.0555 27.5276C35.7873 27.7226 35.425 27.8338 35.0457 27.8374Z" fill="black"/>
<path d="M27.3873 27.8375C27.008 27.8339 26.6456 27.7227 26.3774 27.5277C26.1092 27.3326 25.9563 27.0692 25.9514 26.7934V18.0927H21.1649V26.7934C21.1649 27.0703 21.0136 27.3359 20.7443 27.5317C20.475 27.7275 20.1098 27.8375 19.729 27.8375C19.3481 27.8375 18.9829 27.7275 18.7136 27.5317C18.4443 27.3359 18.293 27.0703 18.293 26.7934V17.0486C18.298 16.7728 18.4509 16.5093 18.7191 16.3143C18.9873 16.1193 19.3497 16.0081 19.729 16.0045H27.3873C27.7666 16.0081 28.1289 16.1193 28.3972 16.3143C28.6654 16.5093 28.8183 16.7728 28.8232 17.0486V26.7934C28.8183 27.0692 28.6654 27.3326 28.3972 27.5277C28.1289 27.7227 27.7666 27.8339 27.3873 27.8375Z" fill="black"/>
</svg>
