<svg width="43" height="30" viewBox="0 0 43 30" fill="none" xmlns="http://www.w3.org/2000/svg">
<path d="M16.4919 13.8386H11.2113C10.1609 13.8386 9.15351 13.5505 8.41078 13.0377C7.66804 12.5249 7.25078 11.8294 7.25078 11.1042V7.45837C7.25078 6.73317 7.66804 6.03767 8.41078 5.52488C9.15351 5.01208 10.1609 4.724 11.2113 4.724H16.4919C17.5423 4.724 18.5497 5.01208 19.2924 5.52488C20.0351 6.03767 20.4524 6.73317 20.4524 7.45837V11.1042C20.4524 11.8294 20.0351 12.5249 19.2924 13.0377C18.5497 13.5505 17.5423 13.8386 16.4919 13.8386ZM11.2113 6.54692C10.8626 6.55006 10.5294 6.6471 10.2828 6.81736C10.0362 6.98761 9.89566 7.21762 9.8911 7.45837V11.1042C9.89566 11.345 10.0362 11.575 10.2828 11.7452C10.5294 11.9155 10.8626 12.0125 11.2113 12.0157H16.4919C16.8406 12.0125 17.1738 11.9155 17.4204 11.7452C17.667 11.575 17.8075 11.345 17.8121 11.1042V7.45837C17.8075 7.21762 17.667 6.98761 17.4204 6.81736C17.1738 6.6471 16.8406 6.55006 16.4919 6.54692H11.2113ZM16.4919 24.7761H11.2113C10.1609 24.7761 9.15351 24.488 8.41078 23.9752C7.66804 23.4624 7.25078 22.7669 7.25078 22.0417V18.3959C7.25078 17.6707 7.66804 16.9752 8.41078 16.4624C9.15351 15.9496 10.1609 15.6615 11.2113 15.6615H16.4919C17.5423 15.6615 18.5497 15.9496 19.2924 16.4624C20.0351 16.9752 20.4524 17.6707 20.4524 18.3959V22.0417C20.4524 22.7669 20.0351 23.4624 19.2924 23.9752C18.5497 24.488 17.5423 24.7761 16.4919 24.7761ZM11.2113 17.4844C10.8626 17.4876 10.5294 17.5846 10.2828 17.7549C10.0362 17.9251 9.89566 18.1551 9.8911 18.3959V22.0417C9.89566 22.2825 10.0362 22.5125 10.2828 22.6827C10.5294 22.853 10.8626 22.95 11.2113 22.9532H16.4919C16.8406 22.95 17.1738 22.853 17.4204 22.6827C17.667 22.5125 17.8075 22.2825 17.8121 22.0417V18.3959C17.8075 18.1551 17.667 17.9251 17.4204 17.7549C17.1738 17.5846 16.8406 17.4876 16.4919 17.4844H11.2113ZM32.3339 13.8386H27.0532C26.0028 13.8386 24.9955 13.5505 24.2527 13.0377C23.51 12.5249 23.0927 11.8294 23.0927 11.1042V7.45837C23.0927 6.73317 23.51 6.03767 24.2527 5.52488C24.9955 5.01208 26.0028 4.724 27.0532 4.724H32.3339C33.3843 4.724 34.3916 5.01208 35.1344 5.52488C35.8771 6.03767 36.2944 6.73317 36.2944 7.45837V11.1042C36.2944 11.8294 35.8771 12.5249 35.1344 13.0377C34.3916 13.5505 33.3843 13.8386 32.3339 13.8386ZM27.0532 6.54692C26.7045 6.55006 26.3714 6.6471 26.1248 6.81736C25.8782 6.98761 25.7376 7.21762 25.7331 7.45837V11.1042C25.7376 11.345 25.8782 11.575 26.1248 11.7452C26.3714 11.9155 26.7045 12.0125 27.0532 12.0157H32.3339C32.6826 12.0125 33.0157 11.9155 33.2623 11.7452C33.5089 11.575 33.6495 11.345 33.654 11.1042V7.45837C33.6495 7.21762 33.5089 6.98761 33.2623 6.81736C33.0157 6.6471 32.6826 6.55006 32.3339 6.54692H27.0532ZM32.3339 24.7761H27.0532C26.0028 24.7761 24.9955 24.488 24.2527 23.9752C23.51 23.4624 23.0927 22.7669 23.0927 22.0417V18.3959C23.0927 17.6707 23.51 16.9752 24.2527 16.4624C24.9955 15.9496 26.0028 15.6615 27.0532 15.6615H32.3339C33.3843 15.6615 34.3916 15.9496 35.1344 16.4624C35.8771 16.9752 36.2944 17.6707 36.2944 18.3959V22.0417C36.2944 22.7669 35.8771 23.4624 35.1344 23.9752C34.3916 24.488 33.3843 24.7761 32.3339 24.7761ZM27.0532 17.4844C26.7045 17.4876 26.3714 17.5846 26.1248 17.7549C25.8782 17.9251 25.7376 18.1551 25.7331 18.3959V22.0417C25.7376 22.2825 25.8782 22.5125 26.1248 22.6827C26.3714 22.853 26.7045 22.95 27.0532 22.9532H32.3339C32.6826 22.95 33.0157 22.853 33.2623 22.6827C33.5089 22.5125 33.6495 22.2825 33.654 22.0417V18.3959C33.6495 18.1551 33.5089 17.9251 33.2623 17.7549C33.0157 17.5846 32.6826 17.4876 32.3339 17.4844H27.0532Z" fill="black"/>
</svg>
