<svg width="47" height="34" viewBox="0 0 47 34" fill="none" xmlns="http://www.w3.org/2000/svg">
<path d="M38.7894 16.7006C38.4785 16.7016 38.1757 16.6282 37.9278 16.4918L23.4728 8.61243L9.01769 16.4918C8.71302 16.6579 8.33006 16.7293 7.95305 16.6901C7.57605 16.6509 7.23588 16.5045 7.00738 16.283C6.77888 16.0614 6.68076 15.783 6.73462 15.5089C6.78848 15.2347 6.9899 14.9874 7.29456 14.8212L22.6112 6.46858C22.8598 6.33304 23.1621 6.25977 23.4728 6.25977C23.7835 6.25977 24.0858 6.33304 24.3343 6.46858L39.651 14.8212C39.929 14.9854 40.1126 15.2193 40.1657 15.4768C40.2189 15.7344 40.1377 15.9971 39.9382 16.2134C39.8161 16.3567 39.6476 16.4761 39.4473 16.5611C39.247 16.646 39.0211 16.6939 38.7894 16.7006Z" fill="black"/>
<path d="M34.9602 27.8375H11.9853C11.606 27.8339 11.2436 27.7227 10.9754 27.5277C10.7072 27.3327 10.5543 27.0692 10.5493 26.7934V13.5683C10.5493 13.2914 10.7006 13.0259 10.9699 12.8301C11.2392 12.6343 11.6044 12.5243 11.9853 12.5243C12.3661 12.5243 12.7314 12.6343 13.0006 12.8301C13.2699 13.0259 13.4212 13.2914 13.4212 13.5683V25.7493H33.5243V13.5683C33.5243 13.2914 33.6756 13.0259 33.9449 12.8301C34.2142 12.6343 34.5794 12.5243 34.9602 12.5243C35.3411 12.5243 35.7063 12.6343 35.9756 12.8301C36.2449 13.0259 36.3962 13.2914 36.3962 13.5683V26.7934C36.3912 27.0692 36.2383 27.3327 35.9701 27.5277C35.7019 27.7227 35.3395 27.8339 34.9602 27.8375Z" fill="black"/>
<path d="M27.3019 27.8375C26.9226 27.8339 26.5603 27.7227 26.2921 27.5277C26.0238 27.3327 25.871 27.0692 25.866 26.7934V18.0927H21.0795V26.7934C21.0795 27.0703 20.9283 27.3359 20.659 27.5317C20.3897 27.7275 20.0244 27.8375 19.6436 27.8375C19.2628 27.8375 18.8975 27.7275 18.6282 27.5317C18.359 27.3359 18.2077 27.0703 18.2077 26.7934V17.0486C18.2126 16.7728 18.3655 16.5094 18.6337 16.3143C18.902 16.1193 19.2643 16.0082 19.6436 16.0045H27.3019C27.6812 16.0082 28.0436 16.1193 28.3118 16.3143C28.58 16.5094 28.7329 16.7728 28.7379 17.0486V26.7934C28.7329 27.0692 28.58 27.3327 28.3118 27.5277C28.0436 27.7227 27.6812 27.8339 27.3019 27.8375Z" fill="black"/>
</svg>
