<svg width="42" height="25" viewBox="0 0 42 25" fill="none" xmlns="http://www.w3.org/2000/svg">
<path d="M15.75 11.7187H10.5C9.45571 11.7187 8.45419 11.4718 7.71577 11.0323C6.97734 10.5927 6.5625 9.9966 6.5625 9.375V6.25C6.5625 5.6284 6.97734 5.03226 7.71577 4.59272C8.45419 4.15318 9.45571 3.90625 10.5 3.90625H15.75C16.7943 3.90625 17.7958 4.15318 18.5342 4.59272C19.2727 5.03226 19.6875 5.6284 19.6875 6.25V9.375C19.6875 9.9966 19.2727 10.5927 18.5342 11.0323C17.7958 11.4718 16.7943 11.7187 15.75 11.7187ZM10.5 5.46875C10.1533 5.47145 9.8221 5.55462 9.57693 5.70056C9.33177 5.84649 9.19203 6.04364 9.1875 6.25V9.375C9.19203 9.58136 9.33177 9.77851 9.57693 9.92444C9.8221 10.0704 10.1533 10.1536 10.5 10.1562H15.75C16.0967 10.1536 16.4279 10.0704 16.6731 9.92444C16.9182 9.77851 17.058 9.58136 17.0625 9.375V6.25C17.058 6.04364 16.9182 5.84649 16.6731 5.70056C16.4279 5.55462 16.0967 5.47145 15.75 5.46875H10.5ZM15.75 21.0938H10.5C9.45571 21.0938 8.45419 20.8468 7.71577 20.4073C6.97734 19.9677 6.5625 19.3716 6.5625 18.75V15.625C6.5625 15.0034 6.97734 14.4073 7.71577 13.9677C8.45419 13.5282 9.45571 13.2812 10.5 13.2812H15.75C16.7943 13.2812 17.7958 13.5282 18.5342 13.9677C19.2727 14.4073 19.6875 15.0034 19.6875 15.625V18.75C19.6875 19.3716 19.2727 19.9677 18.5342 20.4073C17.7958 20.8468 16.7943 21.0938 15.75 21.0938ZM10.5 14.8438C10.1533 14.8464 9.8221 14.9296 9.57693 15.0756C9.33177 15.2215 9.19203 15.4186 9.1875 15.625V18.75C9.19203 18.9564 9.33177 19.1535 9.57693 19.2994C9.8221 19.4454 10.1533 19.5286 10.5 19.5312H15.75C16.0967 19.5286 16.4279 19.4454 16.6731 19.2994C16.9182 19.1535 17.058 18.9564 17.0625 18.75V15.625C17.058 15.4186 16.9182 15.2215 16.6731 15.0756C16.4279 14.9296 16.0967 14.8464 15.75 14.8438H10.5ZM31.5 11.7187H26.25C25.2057 11.7187 24.2042 11.4718 23.4658 11.0323C22.7273 10.5927 22.3125 9.9966 22.3125 9.375V6.25C22.3125 5.6284 22.7273 5.03226 23.4658 4.59272C24.2042 4.15318 25.2057 3.90625 26.25 3.90625H31.5C32.5443 3.90625 33.5458 4.15318 34.2842 4.59272C35.0227 5.03226 35.4375 5.6284 35.4375 6.25V9.375C35.4375 9.9966 35.0227 10.5927 34.2842 11.0323C33.5458 11.4718 32.5443 11.7187 31.5 11.7187ZM26.25 5.46875C25.9033 5.47145 25.5721 5.55462 25.3269 5.70056C25.0818 5.84649 24.942 6.04364 24.9375 6.25V9.375C24.942 9.58136 25.0818 9.77851 25.3269 9.92444C25.5721 10.0704 25.9033 10.1536 26.25 10.1562H31.5C31.8467 10.1536 32.1779 10.0704 32.4231 9.92444C32.6682 9.77851 32.808 9.58136 32.8125 9.375V6.25C32.808 6.04364 32.6682 5.84649 32.4231 5.70056C32.1779 5.55462 31.8467 5.47145 31.5 5.46875H26.25ZM31.5 21.0938H26.25C25.2057 21.0938 24.2042 20.8468 23.4658 20.4073C22.7273 19.9677 22.3125 19.3716 22.3125 18.75V15.625C22.3125 15.0034 22.7273 14.4073 23.4658 13.9677C24.2042 13.5282 25.2057 13.2812 26.25 13.2812H31.5C32.5443 13.2812 33.5458 13.5282 34.2842 13.9677C35.0227 14.4073 35.4375 15.0034 35.4375 15.625V18.75C35.4375 19.3716 35.0227 19.9677 34.2842 20.4073C33.5458 20.8468 32.5443 21.0938 31.5 21.0938ZM26.25 14.8438C25.9033 14.8464 25.5721 14.9296 25.3269 15.0756C25.0818 15.2215 24.942 15.4186 24.9375 15.625V18.75C24.942 18.9564 25.0818 19.1535 25.3269 19.2994C25.5721 19.4454 25.9033 19.5286 26.25 19.5312H31.5C31.8467 19.5286 32.1779 19.4454 32.4231 19.2994C32.6682 19.1535 32.808 18.9564 32.8125 18.75V15.625C32.808 15.4186 32.6682 15.2215 32.4231 15.0756C32.1779 14.9296 31.8467 14.8464 31.5 14.8438H26.25Z" fill="black"/>
</svg>
