<svg width="47" height="34" viewBox="0 0 47 34" fill="none" xmlns="http://www.w3.org/2000/svg">
<path d="M38.7894 16.7006C38.4785 16.7016 38.1757 16.6282 37.9278 16.4918L23.4727 8.61243L9.01766 16.4918C8.71299 16.6579 8.33003 16.7293 7.95302 16.6901C7.57602 16.6509 7.23585 16.5045 7.00735 16.283C6.77885 16.0614 6.68073 15.783 6.73459 15.5089C6.78845 15.2347 6.98987 14.9874 7.29453 14.8212L22.6112 6.46858C22.8597 6.33304 23.162 6.25977 23.4727 6.25977C23.7834 6.25977 24.0857 6.33304 24.3343 6.46858L39.6509 14.8212C39.929 14.9854 40.1126 15.2193 40.1657 15.4768C40.2188 15.7344 40.1377 15.9971 39.9381 16.2134C39.8161 16.3567 39.6476 16.4761 39.4473 16.5611C39.247 16.646 39.0211 16.6939 38.7894 16.7006Z" fill="black"/>
<path d="M34.9603 27.8374H11.9853C11.606 27.8338 11.2437 27.7226 10.9754 27.5276C10.7072 27.3326 10.5543 27.0691 10.5494 26.7933V13.5683C10.5494 13.2913 10.7007 13.0258 10.97 12.83C11.2392 12.6342 11.6045 12.5242 11.9853 12.5242C12.3661 12.5242 12.7314 12.6342 13.0007 12.83C13.27 13.0258 13.4212 13.2913 13.4212 13.5683V25.7492H33.5243V13.5683C33.5243 13.2913 33.6756 13.0258 33.9449 12.83C34.2142 12.6342 34.5794 12.5242 34.9603 12.5242C35.3411 12.5242 35.7063 12.6342 35.9756 12.83C36.2449 13.0258 36.3962 13.2913 36.3962 13.5683V26.7933C36.3913 27.0691 36.2384 27.3326 35.9702 27.5276C35.7019 27.7226 35.3396 27.8338 34.9603 27.8374Z" fill="black"/>
<path d="M27.3019 27.8373C26.9226 27.8337 26.5602 27.7226 26.292 27.5275C26.0238 27.3325 25.8709 27.069 25.866 26.7933V18.0926H21.0795V26.7933C21.0795 27.0702 20.9282 27.3357 20.6589 27.5315C20.3896 27.7273 20.0244 27.8373 19.6436 27.8373C19.2627 27.8373 18.8975 27.7273 18.6282 27.5315C18.3589 27.3357 18.2076 27.0702 18.2076 26.7933V17.0485C18.2126 16.7727 18.3655 16.5092 18.6337 16.3142C18.9019 16.1192 19.2643 16.008 19.6436 16.0044H27.3019C27.6812 16.008 28.0436 16.1192 28.3118 16.3142C28.58 16.5092 28.7329 16.7727 28.7378 17.0485V26.7933C28.7329 27.069 28.58 27.3325 28.3118 27.5275C28.0436 27.7226 27.6812 27.8337 27.3019 27.8373Z" fill="black"/>
</svg>
