<svg width="42" height="28" viewBox="0 0 42 28" fill="none" xmlns="http://www.w3.org/2000/svg">
<path d="M15.75 13.125H10.5C9.45571 13.125 8.45419 12.8484 7.71577 12.3562C6.97734 11.8639 6.5625 11.1962 6.5625 10.5V7C6.5625 6.30381 6.97734 5.63613 7.71577 5.14384C8.45419 4.65156 9.45571 4.375 10.5 4.375H15.75C16.7943 4.375 17.7958 4.65156 18.5342 5.14384C19.2727 5.63613 19.6875 6.30381 19.6875 7V10.5C19.6875 11.1962 19.2727 11.8639 18.5342 12.3562C17.7958 12.8484 16.7943 13.125 15.75 13.125ZM10.5 6.125C10.1533 6.12802 9.8221 6.22118 9.57693 6.38462C9.33177 6.54807 9.19203 6.76888 9.1875 7V10.5C9.19203 10.7311 9.33177 10.9519 9.57693 11.1154C9.8221 11.2788 10.1533 11.372 10.5 11.375H15.75C16.0967 11.372 16.4279 11.2788 16.6731 11.1154C16.9182 10.9519 17.058 10.7311 17.0625 10.5V7C17.058 6.76888 16.9182 6.54807 16.6731 6.38462C16.4279 6.22118 16.0967 6.12802 15.75 6.125H10.5ZM15.75 23.625H10.5C9.45571 23.625 8.45419 23.3484 7.71577 22.8562C6.97734 22.3639 6.5625 21.6962 6.5625 21V17.5C6.5625 16.8038 6.97734 16.1361 7.71577 15.6438C8.45419 15.1516 9.45571 14.875 10.5 14.875H15.75C16.7943 14.875 17.7958 15.1516 18.5342 15.6438C19.2727 16.1361 19.6875 16.8038 19.6875 17.5V21C19.6875 21.6962 19.2727 22.3639 18.5342 22.8562C17.7958 23.3484 16.7943 23.625 15.75 23.625ZM10.5 16.625C10.1533 16.628 9.8221 16.7212 9.57693 16.8846C9.33177 17.0481 9.19203 17.2689 9.1875 17.5V21C9.19203 21.2311 9.33177 21.4519 9.57693 21.6154C9.8221 21.7788 10.1533 21.872 10.5 21.875H15.75C16.0967 21.872 16.4279 21.7788 16.6731 21.6154C16.9182 21.4519 17.058 21.2311 17.0625 21V17.5C17.058 17.2689 16.9182 17.0481 16.6731 16.8846C16.4279 16.7212 16.0967 16.628 15.75 16.625H10.5ZM31.5 13.125H26.25C25.2057 13.125 24.2042 12.8484 23.4658 12.3562C22.7273 11.8639 22.3125 11.1962 22.3125 10.5V7C22.3125 6.30381 22.7273 5.63613 23.4658 5.14384C24.2042 4.65156 25.2057 4.375 26.25 4.375H31.5C32.5443 4.375 33.5458 4.65156 34.2842 5.14384C35.0227 5.63613 35.4375 6.30381 35.4375 7V10.5C35.4375 11.1962 35.0227 11.8639 34.2842 12.3562C33.5458 12.8484 32.5443 13.125 31.5 13.125ZM26.25 6.125C25.9033 6.12802 25.5721 6.22118 25.3269 6.38462C25.0818 6.54807 24.942 6.76888 24.9375 7V10.5C24.942 10.7311 25.0818 10.9519 25.3269 11.1154C25.5721 11.2788 25.9033 11.372 26.25 11.375H31.5C31.8467 11.372 32.1779 11.2788 32.4231 11.1154C32.6682 10.9519 32.808 10.7311 32.8125 10.5V7C32.808 6.76888 32.6682 6.54807 32.4231 6.38462C32.1779 6.22118 31.8467 6.12802 31.5 6.125H26.25ZM31.5 23.625H26.25C25.2057 23.625 24.2042 23.3484 23.4658 22.8562C22.7273 22.3639 22.3125 21.6962 22.3125 21V17.5C22.3125 16.8038 22.7273 16.1361 23.4658 15.6438C24.2042 15.1516 25.2057 14.875 26.25 14.875H31.5C32.5443 14.875 33.5458 15.1516 34.2842 15.6438C35.0227 16.1361 35.4375 16.8038 35.4375 17.5V21C35.4375 21.6962 35.0227 22.3639 34.2842 22.8562C33.5458 23.3484 32.5443 23.625 31.5 23.625ZM26.25 16.625C25.9033 16.628 25.5721 16.7212 25.3269 16.8846C25.0818 17.0481 24.942 17.2689 24.9375 17.5V21C24.942 21.2311 25.0818 21.4519 25.3269 21.6154C25.5721 21.7788 25.9033 21.872 26.25 21.875H31.5C31.8467 21.872 32.1779 21.7788 32.4231 21.6154C32.6682 21.4519 32.808 21.2311 32.8125 21V17.5C32.808 17.2689 32.6682 17.0481 32.4231 16.8846C32.1779 16.7212 31.8467 16.628 31.5 16.625H26.25Z" fill="black"/>
</svg>
