<svg width="47" height="34" viewBox="0 0 47 34" fill="none" xmlns="http://www.w3.org/2000/svg">
<path d="M39.1344 16.9861C38.8226 16.9871 38.5189 16.9139 38.2703 16.7777L23.7725 8.91662L9.27472 16.7777C8.96915 16.9435 8.58506 17.0147 8.20694 16.9756C7.82882 16.9365 7.48765 16.7904 7.25847 16.5694C7.02929 16.3484 6.93089 16.0706 6.98491 15.7971C7.03893 15.5236 7.24094 15.2768 7.54651 15.1111L22.9084 6.77773C23.1577 6.6425 23.4609 6.5694 23.7725 6.5694C24.0841 6.5694 24.3873 6.6425 24.6366 6.77773L39.9985 15.1111C40.2774 15.2749 40.4615 15.5082 40.5148 15.7651C40.5681 16.0221 40.4867 16.2842 40.2865 16.5C40.1642 16.643 39.9951 16.7621 39.7942 16.8469C39.5933 16.9316 39.3668 16.9794 39.1344 16.9861Z" fill="black"/>
<path d="M35.2939 28.0972H12.2511C11.8707 28.0936 11.5072 27.9827 11.2382 27.7881C10.9692 27.5935 10.8159 27.3307 10.8109 27.0555V13.8611C10.8109 13.5848 10.9626 13.3198 11.2327 13.1245C11.5028 12.9291 11.8691 12.8194 12.2511 12.8194C12.633 12.8194 12.9994 12.9291 13.2694 13.1245C13.5395 13.3198 13.6913 13.5848 13.6913 13.8611V26.0138H33.8537V13.8611C33.8537 13.5848 34.0055 13.3198 34.2756 13.1245C34.5456 12.9291 34.912 12.8194 35.2939 12.8194C35.6759 12.8194 36.0422 12.9291 36.3123 13.1245C36.5824 13.3198 36.7341 13.5848 36.7341 13.8611V27.0555C36.7291 27.3307 36.5758 27.5935 36.3068 27.7881C36.0378 27.9827 35.6743 28.0936 35.2939 28.0972Z" fill="black"/>
<path d="M27.613 28.0972C27.2326 28.0936 26.8691 27.9827 26.6001 27.7881C26.3311 27.5935 26.1778 27.3307 26.1728 27.0555V18.375H21.3722V27.0555C21.3722 27.3318 21.2205 27.5967 20.9504 27.7921C20.6803 27.9874 20.314 28.0972 19.932 28.0972C19.5501 28.0972 19.1838 27.9874 18.9137 27.7921C18.6436 27.5967 18.4919 27.3318 18.4919 27.0555V17.3333C18.4968 17.0581 18.6502 16.7953 18.9192 16.6007C19.1882 16.4061 19.5516 16.2952 19.932 16.2916H27.613C27.9934 16.2952 28.3568 16.4061 28.6258 16.6007C28.8948 16.7953 29.0482 17.0581 29.0532 17.3333V27.0555C29.0482 27.3307 28.8948 27.5935 28.6258 27.7881C28.3568 27.9827 27.9934 28.0936 27.613 28.0972Z" fill="black"/>
</svg>
