<svg width="47" height="34" viewBox="0 0 47 34" fill="none" xmlns="http://www.w3.org/2000/svg">
<path d="M39.1344 16.9862C38.8226 16.9873 38.5189 16.9141 38.2703 16.7779L23.7725 8.9168L9.27473 16.7779C8.96917 16.9437 8.58508 17.0148 8.20696 16.9758C7.82884 16.9367 7.48766 16.7906 7.25849 16.5696C7.02931 16.3486 6.93091 16.0708 6.98492 15.7973C7.03894 15.5238 7.24095 15.277 7.54652 15.1112L22.9084 6.77791C23.1577 6.64268 23.4609 6.56958 23.7725 6.56958C24.0841 6.56958 24.3873 6.64268 24.6366 6.77791L39.9985 15.1112C40.2774 15.2751 40.4615 15.5083 40.5148 15.7653C40.5681 16.0223 40.4867 16.2844 40.2866 16.5001C40.1642 16.6432 39.9951 16.7623 39.7942 16.847C39.5934 16.9318 39.3668 16.9796 39.1344 16.9862Z" fill="black"/>
<path d="M35.2939 28.0974H12.2511C11.8707 28.0938 11.5072 27.9829 11.2382 27.7883C10.9692 27.5937 10.8159 27.3308 10.8109 27.0557V13.8612C10.8109 13.585 10.9626 13.32 11.2327 13.1247C11.5028 12.9293 11.8691 12.8196 12.2511 12.8196C12.633 12.8196 12.9994 12.9293 13.2694 13.1247C13.5395 13.32 13.6913 13.585 13.6913 13.8612V26.014H33.8537V13.8612C33.8537 13.585 34.0055 13.32 34.2756 13.1247C34.5457 12.9293 34.912 12.8196 35.2939 12.8196C35.6759 12.8196 36.0422 12.9293 36.3123 13.1247C36.5824 13.32 36.7341 13.585 36.7341 13.8612V27.0557C36.7291 27.3308 36.5758 27.5937 36.3068 27.7883C36.0378 27.9829 35.6743 28.0938 35.2939 28.0974Z" fill="black"/>
<path d="M27.613 28.0973C27.2326 28.0937 26.8691 27.9828 26.6001 27.7882C26.3311 27.5937 26.1778 27.3308 26.1728 27.0556V18.3751H21.3722V27.0556C21.3722 27.3319 21.2205 27.5969 20.9504 27.7922C20.6803 27.9876 20.314 28.0973 19.932 28.0973C19.5501 28.0973 19.1838 27.9876 18.9137 27.7922C18.6436 27.5969 18.4919 27.3319 18.4919 27.0556V17.3334C18.4968 17.0583 18.6502 16.7954 18.9192 16.6008C19.1882 16.4062 19.5516 16.2953 19.932 16.2917H27.613C27.9934 16.2953 28.3568 16.4062 28.6258 16.6008C28.8949 16.7954 29.0482 17.0583 29.0532 17.3334V27.0556C29.0482 27.3308 28.8949 27.5937 28.6258 27.7882C28.3568 27.9828 27.9934 28.0937 27.613 28.0973Z" fill="black"/>
</svg>
